<?xml version="1.0" standalone="no"?>
<!DOCTYPE svg PUBLIC "-//W3C//DTD SVG 20010904//EN"
 "http://www.w3.org/TR/2001/REC-SVG-20010904/DTD/svg10.dtd">
<svg version="1.0" xmlns="http://www.w3.org/2000/svg"
 width="939.000000pt" height="939.000000pt" viewBox="0 0 939.000000 939.000000"
 preserveAspectRatio="xMidYMid meet">
<metadata>
Created by potrace 1.11, written by Peter Selinger 2001-2013
</metadata>
<g transform="translate(0.000000,939.000000) scale(0.100000,-0.100000)"
fill="#000000" stroke="none">
<path d="M4292 9355 c-516 -48 -943 -153 -1421 -349 -176 -72 -473 -223 -611
-310 -377 -239 -613 -424 -885 -693 -413 -410 -768 -926 -984 -1433 -18 -41
-39 -88 -46 -105 -7 -16 -34 -84 -58 -150 -135 -363 -222 -742 -269 -1168 -20
-181 -15 -883 7 -950 2 -6 6 -39 10 -72 7 -79 11 -104 41 -270 222 -1235 969
-2359 2029 -3050 218 -142 281 -179 474 -275 320 -160 617 -271 946 -355 157
-39 390 -86 510 -101 28 -3 57 -7 65 -9 138 -26 732 -40 960 -23 114 9 317 33
397 47 32 6 73 13 91 16 189 32 510 117 722 193 711 253 1354 674 1865 1223
191 205 318 365 471 594 443 661 710 1429 771 2220 10 130 10 600 0 735 -105
1399 -869 2704 -2048 3496 -438 295 -881 499 -1384 638 -226 62 -554 124 -750
142 -38 3 -81 8 -95 11 -62 12 -671 11 -808 -2z"/>
</g>
</svg>
